<svg xmlns="http://www.w3.org/2000/svg" width="578.401" height="577.921" fill="#fff"><switch><g><path fill-rule="evenodd" clip-rule="evenodd" d="M120.96 0c.435.161.858.39 1.308.471 4.107.742 7.739 2.479 10.951 5.131 4.303 3.552 7.852 7.697 10.469 12.667 21.524 40.888 43.077 81.761 64.634 122.632 4.522 8.573 4.298 17.356 1.238 26.263-1.929 5.616-5.103 10.454-9.313 14.646-9.467 9.426-18.85 18.935-28.377 28.299-2.501 2.459-3.609 5.403-4.175 8.676-.13.753.04 1.588.199 2.358 1.811 8.756 5.161 16.957 9.125 24.921 9.782 19.656 22.291 37.505 36.327 54.311 9.494 11.368 19.763 22.026 30.37 32.354 8.823 8.592 17.557 17.286 26.625 25.613 16.198 14.874 33.986 27.639 52.961 38.738 6.355 3.717 13 6.861 19.818 9.651 5.003 2.048 10.241 3.23 15.531 3.929 3.309.437 6.459-.961 8.892-3.404 5.247-5.272 10.435-10.604 15.647-15.91 5.997-6.105 11.889-12.318 18.018-18.289 8.352-8.136 18.553-11.224 30.073-10.467 6.128.401 11.655 2.462 16.892 5.56 37.851 22.387 75.715 44.75 113.581 67.112 3.886 2.294 7.47 4.954 10.366 8.441 3.06 3.684 5.389 7.729 5.907 12.617.041.383.245.748.373 1.121v5.76c-.254 1.319-.452 2.652-.771 3.956-1.273 5.189-4.013 9.555-7.758 13.289-9.962 9.935-19.965 19.828-29.949 29.739-17.078 16.95-34.272 33.783-51.181 50.9-8.479 8.584-18.646 13.519-30.247 15.938-1.776.37-3.582.603-5.374.898H436.8c-.374-.122-.74-.313-1.123-.356-6.114-.694-12.241-1.289-18.344-2.067-8.562-1.092-17.088-2.42-25.467-4.555-22.618-5.764-44.37-13.945-65.324-24.135-48.614-23.641-93.146-53.391-133.248-89.725-16.664-15.098-32.681-30.851-48.423-46.89-24.353-24.813-46.933-51.111-66.926-79.605-18.637-26.563-35.512-54.136-48.98-83.709-13.861-30.437-23.917-61.984-27.783-95.337C.853 148.7.397 145.873 0 143.04v-10.08c.298-1.865.664-3.723.878-5.598.334-2.93.259-5.938.895-8.795 2.501-11.237 7.573-21.011 15.919-29.223 19.89-19.571 39.514-39.411 59.245-59.142 7.18-7.18 14.363-14.358 21.54-21.541 4.359-4.362 9.465-7.296 15.624-8.252.378-.059.734-.269 1.1-.409h5.759z"/></g></switch></svg>